<?xml version="1.0" encoding="iso-8859-1"?>
<!-- Generator: Adobe Illustrator 19.0.0, SVG Export Plug-In . SVG Version: 6.00 Build 0)  -->
<svg version="1.1" id="Layer_1" xmlns="http://www.w3.org/2000/svg" xmlns:xlink="http://www.w3.org/1999/xlink" x="0px" y="0px"
	 viewBox="0 0 512.001 512.001" style="enable-background:new 0 0 512.001 512.001;" xml:space="preserve">
<path style="fill:#504B5A;" d="M364.012,327.121l-71.173,29.474l54.468-54.468c-3.777-4.357-7.854-8.434-12.212-12.212L280.6,344.41
	l29.494-71.204c-5.124-2.571-10.433-4.815-15.941-6.648l-29.515,71.256v-77.061c-2.864-0.203-5.72-0.436-8.636-0.436
	c-2.916,0-5.772,0.233-8.636,0.436v77.037l-29.51-71.235c-5.509,1.832-10.818,4.076-15.942,6.648l29.506,71.224l-54.513-54.511
	c-4.357,3.778-8.434,7.854-12.211,12.211l54.499,54.498l-71.209-29.496c-2.571,5.124-4.816,10.433-6.649,15.942l94.086,38.972
	l44.681-1.48l90.558-37.502C368.829,337.554,366.585,332.245,364.012,327.121z"/>
<path style="fill:#FF4B4B;" d="M511.343,275.448c-42.978-103.618-143.201-170.576-255.342-170.576S43.636,171.829,0.658,275.448
	c-0.878,2.117-0.878,4.495,0,6.612s2.555,3.8,4.672,4.676l135.671,56.197c1.079,0.447,2.201,0.662,3.306,0.662
	c3.382-0.004,6.595-2.007,7.979-5.334c17.458-42.1,58.166-69.307,103.715-69.307c45.542,0,86.249,27.202,103.715,69.302
	c1.838,4.411,6.907,6.49,11.284,4.668l135.671-56.189c2.117-0.878,3.795-2.559,4.672-4.676
	C512.22,279.943,512.22,277.565,511.343,275.448z"/>
<circle style="fill:#625D6B;" cx="256.002" cy="381.223" r="25.908"/>
<g>
	<path style="fill:#C83741;" d="M158.195,326.257c2.844-5.075,6.041-9.877,9.57-14.381L31.09,220.552
		c-3.329,4.673-6.451,9.52-9.503,14.425L158.195,326.257z"/>
	<path style="fill:#C83741;" d="M264.637,105.192c-2.882-0.09-5.736-0.322-8.636-0.322c-2.9,0-5.754,0.232-8.636,0.322v164.095
		c2.856-0.218,5.735-0.334,8.636-0.334c2.901,0,5.78,0.116,8.636,0.334V105.192z"/>
	<path style="fill:#C83741;" d="M186.615,292.917c4.531-3.564,9.329-6.772,14.355-9.596l-91.238-136.544
		c-4.888,3.048-9.67,6.244-14.357,9.592L186.615,292.917z"/>
	<path style="fill:#C83741;" d="M205.191,281.126c5.125-2.599,10.451-4.818,15.957-6.61l-62.89-151.824
		c-5.4,2.035-10.695,4.289-15.94,6.651L205.191,281.126z"/>
	<path style="fill:#C83741;" d="M5.331,286.736l135.671,56.197c1.079,0.447,2.201,0.662,3.306,0.662
		c3.382-0.004,6.595-2.007,7.979-5.334c1.111-2.678,2.32-5.294,3.615-7.849L4.26,267.602c-1.185,2.626-2.493,5.171-3.602,7.847
		c-0.878,2.117-0.878,4.495,0,6.612S3.214,285.859,5.331,286.736z"/>
	<path style="fill:#C83741;" d="M210.6,108.702c-5.696,0.94-11.369,1.968-16.958,3.254l32.062,161.198
		c5.51-1.537,11.166-2.651,16.942-3.337L210.6,108.702z"/>
	<path style="fill:#C83741;" d="M54.549,191.985L170.76,308.195c3.762-4.403,7.848-8.475,12.208-12.216L66.793,179.806
		C62.604,183.747,58.495,187.776,54.549,191.985z"/>
	<path style="fill:#C83741;" d="M290.853,274.517c5.507,1.792,10.833,4.009,15.957,6.61l62.873-151.783
		c-5.245-2.362-10.54-4.616-15.94-6.651L290.853,274.517z"/>
	<path style="fill:#C83741;" d="M269.357,269.817c5.775,0.685,11.432,1.799,16.942,3.337l32.062-161.198
		c-5.59-1.286-11.261-2.313-16.959-3.254L269.357,269.817z"/>
	<path style="fill:#C83741;" d="M311.032,283.323c5.026,2.824,9.822,6.032,14.354,9.598l91.241-136.549
		c-4.687-3.35-9.469-6.545-14.357-9.592L311.032,283.323z"/>
	<path style="fill:#C83741;" d="M359.717,338.257c1.838,4.411,6.907,6.49,11.284,4.668l135.671-56.189
		c2.117-0.878,3.796-2.559,4.672-4.676s0.878-4.495,0-6.612c-1.11-2.676-2.417-5.22-3.602-7.847l-151.638,62.81
		C357.397,332.965,358.606,335.579,359.717,338.257z"/>
	<path style="fill:#C83741;" d="M445.209,179.806L329.032,295.981c4.36,3.74,8.447,7.812,12.209,12.216l116.213-116.211
		C453.507,187.776,449.399,183.747,445.209,179.806z"/>
	<path style="fill:#C83741;" d="M344.236,311.876c3.529,4.503,6.725,9.305,9.571,14.38l136.608-91.28
		c-3.052-4.904-6.174-9.752-9.503-14.425L344.236,311.876z"/>
</g>
<g>
</g>
<g>
</g>
<g>
</g>
<g>
</g>
<g>
</g>
<g>
</g>
<g>
</g>
<g>
</g>
<g>
</g>
<g>
</g>
<g>
</g>
<g>
</g>
<g>
</g>
<g>
</g>
<g>
</g>
</svg>
