<svg xmlns="http://www.w3.org/2000/svg" viewBox="0 0 512.001 512.001"><path d="M364.012 327.121l-71.173 29.474 54.468-54.468a121.364 121.364 0 0 0-12.212-12.212L280.6 344.41l29.494-71.204c-5.124-2.571-10.433-4.815-15.941-6.648l-29.515 71.256v-77.061c-2.864-.203-5.72-.436-8.636-.436-2.916 0-5.772.233-8.636.436v77.037l-29.51-71.235c-5.509 1.832-10.818 4.076-15.942 6.648l29.506 71.224-54.513-54.511a121.449 121.449 0 0 0-12.211 12.211l54.499 54.498-71.209-29.496c-2.571 5.124-4.816 10.433-6.649 15.942l94.086 38.972 44.681-1.48 90.558-37.502c-1.833-5.507-4.077-10.816-6.65-15.94z" fill="#504b5a"/><path d="M511.343 275.448C468.365 171.83 368.142 104.872 256.001 104.872S43.636 171.829.658 275.448c-.878 2.117-.878 4.495 0 6.612s2.555 3.8 4.672 4.676l135.671 56.197a8.627 8.627 0 0 0 3.306.662 8.653 8.653 0 0 0 7.979-5.334c17.458-42.1 58.166-69.307 103.715-69.307 45.542 0 86.249 27.202 103.715 69.302 1.838 4.411 6.907 6.49 11.284 4.668l135.671-56.189a8.637 8.637 0 0 0 4.672-4.676 8.635 8.635 0 0 0 0-6.611z" fill="#ff4b4b"/><circle cx="256.002" cy="381.223" r="25.908" fill="#625d6b"/><g fill="#c83741"><path d="M158.195 326.257a112.351 112.351 0 0 1 9.57-14.381L31.09 220.552c-3.329 4.673-6.451 9.52-9.503 14.425l136.608 91.28zM264.637 105.192c-2.882-.09-5.736-.322-8.636-.322-2.9 0-5.754.232-8.636.322v164.095c2.856-.218 5.735-.334 8.636-.334 2.901 0 5.78.116 8.636.334V105.192zM186.615 292.917a111.796 111.796 0 0 1 14.355-9.596l-91.238-136.544a275.265 275.265 0 0 0-14.357 9.592l91.24 136.548zM205.191 281.126a111.724 111.724 0 0 1 15.957-6.61l-62.89-151.824c-5.4 2.035-10.695 4.289-15.94 6.651l62.873 151.783zM5.331 286.736l135.671 56.197a8.627 8.627 0 0 0 3.306.662 8.653 8.653 0 0 0 7.979-5.334 113.918 113.918 0 0 1 3.615-7.849L4.26 267.602c-1.185 2.626-2.493 5.171-3.602 7.847a8.637 8.637 0 0 0 4.673 11.287zM210.6 108.702c-5.696.94-11.369 1.968-16.958 3.254l32.062 161.198a112.295 112.295 0 0 1 16.942-3.337L210.6 108.702zM54.549 191.985l116.211 116.21a111.759 111.759 0 0 1 12.208-12.216L66.793 179.806c-4.189 3.941-8.298 7.97-12.244 12.179zM290.853 274.517a111.398 111.398 0 0 1 15.957 6.61l62.873-151.783c-5.245-2.362-10.54-4.616-15.94-6.651l-62.89 151.824zM269.357 269.817a112.072 112.072 0 0 1 16.942 3.337l32.062-161.198c-5.59-1.286-11.261-2.313-16.959-3.254l-32.045 161.115zM311.032 283.323a111.662 111.662 0 0 1 14.354 9.598l91.241-136.549a273.378 273.378 0 0 0-14.357-9.592l-91.238 136.543zM359.717 338.257c1.838 4.411 6.907 6.49 11.284 4.668l135.671-56.189c2.117-.878 3.796-2.559 4.672-4.676s.878-4.495 0-6.612c-1.11-2.676-2.417-5.22-3.602-7.847l-151.638 62.81a114.558 114.558 0 0 1 3.613 7.846zM445.209 179.806L329.032 295.981c4.36 3.74 8.447 7.812 12.209 12.216l116.213-116.211c-3.947-4.21-8.055-8.239-12.245-12.18zM344.236 311.876a112.487 112.487 0 0 1 9.571 14.38l136.608-91.28c-3.052-4.904-6.174-9.752-9.503-14.425l-136.676 91.325z"/></g></svg>
